<svg width="51" height="10" viewBox="0 0 51 10" fill="none" xmlns="http://www.w3.org/2000/svg">
<path d="M0.107422 9V0.416016H2.5332L5.79102 5.49609L6.41211 6.69727H6.5293L6.45898 5.34375V0.416016H7.90039V9H6.14258L2.16992 2.83008L1.5957 1.67578H1.47852L1.54883 2.9707V9H0.107422ZM15.2012 8.39062C15.0098 8.52734 14.8086 8.64258 14.5977 8.73633C14.3867 8.82617 14.1738 8.90039 13.959 8.95898C13.7441 9.01367 13.5312 9.05273 13.3203 9.07617C13.1094 9.10352 12.9082 9.11719 12.7168 9.11719C12.248 9.11719 11.8203 9.05078 11.4336 8.91797C11.0469 8.78516 10.7148 8.58984 10.4375 8.33203C10.1602 8.07422 9.94531 7.75977 9.79297 7.38867C9.64062 7.01367 9.56445 6.58594 9.56445 6.10547C9.56445 5.57422 9.6543 5.09766 9.83398 4.67578C10.0176 4.25 10.2617 3.88867 10.5664 3.5918C10.8711 3.29492 11.2227 3.06836 11.6211 2.91211C12.0234 2.75195 12.4434 2.67188 12.8809 2.67188C13.252 2.67188 13.5957 2.73047 13.9121 2.84766C14.2285 2.96484 14.502 3.14062 14.7324 3.375C14.9629 3.60547 15.1426 3.89258 15.2715 4.23633C15.4004 4.58008 15.4648 4.97852 15.4648 5.43164C15.4648 5.56445 15.459 5.69336 15.4473 5.81836C15.4355 5.93945 15.4199 6.05078 15.4004 6.15234H11.3457C11.3457 6.44531 11.3965 6.70117 11.498 6.91992C11.6035 7.13867 11.75 7.32031 11.9375 7.46484C12.1289 7.60938 12.3574 7.7168 12.623 7.78711C12.8926 7.85742 13.1895 7.89258 13.5137 7.89258C13.6191 7.89258 13.7383 7.88867 13.8711 7.88086C14.0039 7.87305 14.1445 7.85938 14.293 7.83984C14.4414 7.81641 14.5918 7.78516 14.7441 7.74609C14.9004 7.70703 15.0527 7.6582 15.2012 7.59961V8.39062ZM13.8828 5.44336C13.8828 5.16992 13.8516 4.93164 13.7891 4.72852C13.7266 4.52148 13.6406 4.34961 13.5312 4.21289C13.4219 4.07617 13.293 3.97461 13.1445 3.9082C12.9961 3.8418 12.8359 3.80859 12.6641 3.80859C12.4727 3.80859 12.2969 3.84766 12.1367 3.92578C11.9766 4.00391 11.8379 4.11523 11.7207 4.25977C11.6035 4.4043 11.5117 4.57617 11.4453 4.77539C11.3789 4.97461 11.3457 5.19727 11.3457 5.44336H13.8828ZM22.2441 8.39062C22.0527 8.52734 21.8516 8.64258 21.6406 8.73633C21.4297 8.82617 21.2168 8.90039 21.002 8.95898C20.7871 9.01367 20.5742 9.05273 20.3633 9.07617C20.1523 9.10352 19.9512 9.11719 19.7598 9.11719C19.291 9.11719 18.8633 9.05078 18.4766 8.91797C18.0898 8.78516 17.7578 8.58984 17.4805 8.33203C17.2031 8.07422 16.9883 7.75977 16.8359 7.38867C16.6836 7.01367 16.6074 6.58594 16.6074 6.10547C16.6074 5.57422 16.6973 5.09766 16.877 4.67578C17.0605 4.25 17.3047 3.88867 17.6094 3.5918C17.9141 3.29492 18.2656 3.06836 18.6641 2.91211C19.0664 2.75195 19.4863 2.67188 19.9238 2.67188C20.2949 2.67188 20.6387 2.73047 20.9551 2.84766C21.2715 2.96484 21.5449 3.14062 21.7754 3.375C22.0059 3.60547 22.1855 3.89258 22.3145 4.23633C22.4434 4.58008 22.5078 4.97852 22.5078 5.43164C22.5078 5.56445 22.502 5.69336 22.4902 5.81836C22.4785 5.93945 22.4629 6.05078 22.4434 6.15234H18.3887C18.3887 6.44531 18.4395 6.70117 18.541 6.91992C18.6465 7.13867 18.793 7.32031 18.9805 7.46484C19.1719 7.60938 19.4004 7.7168 19.666 7.78711C19.9355 7.85742 20.2324 7.89258 20.5566 7.89258C20.6621 7.89258 20.7812 7.88867 20.9141 7.88086C21.0469 7.87305 21.1875 7.85938 21.3359 7.83984C21.4844 7.81641 21.6348 7.78516 21.7871 7.74609C21.9434 7.70703 22.0957 7.6582 22.2441 7.59961V8.39062ZM20.9258 5.44336C20.9258 5.16992 20.8945 4.93164 20.832 4.72852C20.7695 4.52148 20.6836 4.34961 20.5742 4.21289C20.4648 4.07617 20.3359 3.97461 20.1875 3.9082C20.0391 3.8418 19.8789 3.80859 19.707 3.80859C19.5156 3.80859 19.3398 3.84766 19.1797 3.92578C19.0195 4.00391 18.8809 4.11523 18.7637 4.25977C18.6465 4.4043 18.5547 4.57617 18.4883 4.77539C18.4219 4.97461 18.3887 5.19727 18.3887 5.44336H20.9258ZM24.0195 2.78906H25.4551L25.6777 3.82617C25.8105 3.70508 25.9609 3.57812 26.1289 3.44531C26.3008 3.30859 26.4844 3.18359 26.6797 3.07031C26.8789 2.95703 27.0879 2.86328 27.3066 2.78906C27.5293 2.71094 27.7617 2.67188 28.0039 2.67188C28.2891 2.67188 28.5488 2.72461 28.7832 2.83008C29.0215 2.93555 29.2227 3.08398 29.3867 3.27539C29.5547 3.46289 29.6836 3.69141 29.7734 3.96094C29.8672 4.22656 29.9141 4.51953 29.9141 4.83984V9H28.1855V5.06836C28.1855 4.87695 28.1582 4.70898 28.1035 4.56445C28.0488 4.41602 27.9746 4.29297 27.8809 4.19531C27.7871 4.09375 27.6758 4.01953 27.5469 3.97266C27.4219 3.92188 27.2852 3.89648 27.1367 3.89648C26.8867 3.89648 26.6484 3.96094 26.4219 4.08984C26.1953 4.21875 25.9707 4.38281 25.748 4.58203V9H24.0195V2.78906ZM34.4902 9.11719C33.9785 9.11719 33.5293 9.03516 33.1426 8.87109C32.7598 8.70703 32.4375 8.48633 32.1758 8.20898C31.918 7.92773 31.7227 7.60352 31.5898 7.23633C31.4609 6.86523 31.3965 6.47461 31.3965 6.06445C31.3965 5.5918 31.4805 5.15039 31.6484 4.74023C31.8203 4.32617 32.0605 3.9668 32.3691 3.66211C32.6777 3.35352 33.0469 3.11133 33.4766 2.93555C33.9102 2.75977 34.3887 2.67188 34.9121 2.67188C35.4199 2.67188 35.8672 2.75391 36.2539 2.91797C36.6406 3.08203 36.9648 3.30469 37.2266 3.58594C37.4883 3.86328 37.6855 4.1875 37.8184 4.55859C37.9512 4.92969 38.0176 5.32227 38.0176 5.73633C38.0176 6.2168 37.9297 6.66406 37.7539 7.07812C37.582 7.48828 37.3398 7.8457 37.0273 8.15039C36.7188 8.45117 36.3477 8.6875 35.9141 8.85938C35.4844 9.03125 35.0098 9.11719 34.4902 9.11719ZM34.7422 7.98047C34.957 7.98047 35.1543 7.93555 35.334 7.8457C35.5176 7.75586 35.6758 7.625 35.8086 7.45312C35.9414 7.28125 36.043 7.07227 36.1133 6.82617C36.1875 6.58008 36.2246 6.30078 36.2246 5.98828C36.2246 5.69141 36.1895 5.41016 36.1191 5.14453C36.0488 4.87891 35.9473 4.64844 35.8145 4.45312C35.6816 4.25391 35.5176 4.09766 35.3223 3.98438C35.1309 3.86719 34.9121 3.80859 34.666 3.80859C34.4434 3.80859 34.2402 3.85547 34.0566 3.94922C33.877 4.04297 33.7227 4.17773 33.5938 4.35352C33.4648 4.5293 33.3633 4.74219 33.2891 4.99219C33.2188 5.23828 33.1836 5.51367 33.1836 5.81836C33.1836 6.12695 33.2188 6.41406 33.2891 6.67969C33.3633 6.94141 33.4668 7.16992 33.5996 7.36523C33.7363 7.55664 33.9004 7.70703 34.0918 7.81641C34.2832 7.92578 34.5 7.98047 34.7422 7.98047ZM40.0098 3.92578H38.7617L38.8789 3.1582C39.0859 3.0957 39.2637 3.0332 39.4121 2.9707C39.5645 2.9082 39.6953 2.83984 39.8047 2.76562C39.918 2.6875 40.0156 2.60352 40.0977 2.51367C40.1836 2.41992 40.2637 2.3125 40.3379 2.19141C40.4121 2.07031 40.4863 1.93164 40.5605 1.77539C40.6348 1.61914 40.7188 1.43945 40.8125 1.23633H41.6562V2.78906H43.8711L43.6016 3.92578H41.7383V6.84961C41.7383 7.23242 41.8398 7.50195 42.043 7.6582C42.25 7.81445 42.5391 7.89258 42.9102 7.89258C43.0703 7.89258 43.2305 7.87891 43.3906 7.85156C43.5547 7.82422 43.7109 7.78125 43.8594 7.72266V8.51367C43.5742 8.7168 43.2637 8.86914 42.9277 8.9707C42.5957 9.06836 42.2598 9.11719 41.9199 9.11719C41.5957 9.11719 41.3125 9.07227 41.0703 8.98242C40.832 8.88867 40.6328 8.75586 40.4727 8.58398C40.3164 8.41211 40.1992 8.20312 40.1211 7.95703C40.0469 7.71094 40.0098 7.43164 40.0098 7.11914V3.92578ZM50.4746 8.39062C50.2832 8.52734 50.082 8.64258 49.8711 8.73633C49.6602 8.82617 49.4473 8.90039 49.2324 8.95898C49.0176 9.01367 48.8047 9.05273 48.5938 9.07617C48.3828 9.10352 48.1816 9.11719 47.9902 9.11719C47.5215 9.11719 47.0938 9.05078 46.707 8.91797C46.3203 8.78516 45.9883 8.58984 45.7109 8.33203C45.4336 8.07422 45.2188 7.75977 45.0664 7.38867C44.9141 7.01367 44.8379 6.58594 44.8379 6.10547C44.8379 5.57422 44.9277 5.09766 45.1074 4.67578C45.291 4.25 45.5352 3.88867 45.8398 3.5918C46.1445 3.29492 46.4961 3.06836 46.8945 2.91211C47.2969 2.75195 47.7168 2.67188 48.1543 2.67188C48.5254 2.67188 48.8691 2.73047 49.1855 2.84766C49.502 2.96484 49.7754 3.14062 50.0059 3.375C50.2363 3.60547 50.416 3.89258 50.5449 4.23633C50.6738 4.58008 50.7383 4.97852 50.7383 5.43164C50.7383 5.56445 50.7324 5.69336 50.7207 5.81836C50.709 5.93945 50.6934 6.05078 50.6738 6.15234H46.6191C46.6191 6.44531 46.6699 6.70117 46.7715 6.91992C46.877 7.13867 47.0234 7.32031 47.2109 7.46484C47.4023 7.60938 47.6309 7.7168 47.8965 7.78711C48.166 7.85742 48.4629 7.89258 48.7871 7.89258C48.8926 7.89258 49.0117 7.88867 49.1445 7.88086C49.2773 7.87305 49.418 7.85938 49.5664 7.83984C49.7148 7.81641 49.8652 7.78516 50.0176 7.74609C50.1738 7.70703 50.3262 7.6582 50.4746 7.59961V8.39062ZM49.1562 5.44336C49.1562 5.16992 49.125 4.93164 49.0625 4.72852C49 4.52148 48.9141 4.34961 48.8047 4.21289C48.6953 4.07617 48.5664 3.97461 48.418 3.9082C48.2695 3.8418 48.1094 3.80859 47.9375 3.80859C47.7461 3.80859 47.5703 3.84766 47.4102 3.92578C47.25 4.00391 47.1113 4.11523 46.9941 4.25977C46.877 4.4043 46.7852 4.57617 46.7188 4.77539C46.6523 4.97461 46.6191 5.19727 46.6191 5.44336H49.1562Z" fill="#191F2A"/>
</svg>
