<svg width="66" height="12" viewBox="0 0 66 12" fill="none" xmlns="http://www.w3.org/2000/svg">
    <path d="M4.984 2.44C6.06133 2.44 6.91467 2.75467 7.544 3.384C8.184 4.00267 8.504 4.91467 8.504 6.12V11H6.968V6.296C6.968 5.47467 6.77067 4.856 6.376 4.44C5.98133 4.024 5.416 3.816 4.68 3.816C3.848 3.816 3.192 4.06133 2.712 4.552C2.232 5.032 1.992 5.72533 1.992 6.632V11H0.456V2.52H1.928V3.8C2.23733 3.36267 2.65333 3.02667 3.176 2.792C3.70933 2.55733 4.312 2.44 4.984 2.44ZM15.2175 9.752C16.2308 9.752 17.0468 9.41067 17.6655 8.728L18.4975 9.72C18.1242 10.168 17.6495 10.5093 17.0735 10.744C16.5082 10.9787 15.8735 11.096 15.1695 11.096C14.2735 11.096 13.4788 10.9147 12.7855 10.552C12.0922 10.1787 11.5535 9.66133 11.1695 9C10.7962 8.33867 10.6095 7.592 10.6095 6.76C10.6095 5.93867 10.7908 5.19733 11.1535 4.536C11.5268 3.87467 12.0335 3.36267 12.6735 3C13.3242 2.62667 14.0548 2.44 14.8655 2.44C15.6335 2.44 16.3322 2.616 16.9615 2.968C17.5908 3.30933 18.0922 3.79467 18.4655 4.424C18.8388 5.05333 19.0308 5.77867 19.0415 6.6L12.3055 7.912C12.5188 8.49867 12.8762 8.952 13.3775 9.272C13.8895 9.592 14.5028 9.752 15.2175 9.752ZM14.8655 3.736C14.3322 3.736 13.8522 3.85867 13.4255 4.104C13.0095 4.34933 12.6842 4.696 12.4495 5.144C12.2148 5.58133 12.0975 6.09333 12.0975 6.68V6.84L17.5215 5.816C17.3828 5.19733 17.0735 4.696 16.5935 4.312C16.1135 3.928 15.5375 3.736 14.8655 3.736ZM25.0144 9.752C26.0277 9.752 26.8437 9.41067 27.4624 8.728L28.2944 9.72C27.921 10.168 27.4464 10.5093 26.8704 10.744C26.305 10.9787 25.6704 11.096 24.9664 11.096C24.0704 11.096 23.2757 10.9147 22.5824 10.552C21.889 10.1787 21.3504 9.66133 20.9664 9C20.593 8.33867 20.4064 7.592 20.4064 6.76C20.4064 5.93867 20.5877 5.19733 20.9504 4.536C21.3237 3.87467 21.8304 3.36267 22.4704 3C23.121 2.62667 23.8517 2.44 24.6624 2.44C25.4304 2.44 26.129 2.616 26.7584 2.968C27.3877 3.30933 27.889 3.79467 28.2624 4.424C28.6357 5.05333 28.8277 5.77867 28.8384 6.6L22.1024 7.912C22.3157 8.49867 22.673 8.952 23.1744 9.272C23.6864 9.592 24.2997 9.752 25.0144 9.752ZM24.6624 3.736C24.129 3.736 23.649 3.85867 23.2224 4.104C22.8064 4.34933 22.481 4.696 22.2464 5.144C22.0117 5.58133 21.8944 6.09333 21.8944 6.68V6.84L27.3184 5.816C27.1797 5.19733 26.8704 4.696 26.3904 4.312C25.9104 3.928 25.3344 3.736 24.6624 3.736ZM35.5153 2.44C36.5926 2.44 37.4459 2.75467 38.0753 3.384C38.7153 4.00267 39.0353 4.91467 39.0353 6.12V11H37.4993V6.296C37.4993 5.47467 37.3019 4.856 36.9073 4.44C36.5126 4.024 35.9473 3.816 35.2113 3.816C34.3793 3.816 33.7233 4.06133 33.2433 4.552C32.7633 5.032 32.5233 5.72533 32.5233 6.632V11H30.9873V2.52H32.4593V3.8C32.7686 3.36267 33.1846 3.02667 33.7073 2.792C34.2406 2.55733 34.8433 2.44 35.5153 2.44ZM45.5568 11.096C44.7141 11.096 43.9568 10.9093 43.2848 10.536C42.6128 10.1627 42.0848 9.65067 41.7008 9C41.3274 8.33867 41.1408 7.592 41.1408 6.76C41.1408 5.928 41.3274 5.18667 41.7008 4.536C42.0848 3.87467 42.6128 3.36267 43.2848 3C43.9568 2.62667 44.7141 2.44 45.5568 2.44C46.3994 2.44 47.1514 2.62667 47.8128 3C48.4848 3.36267 49.0074 3.87467 49.3808 4.536C49.7648 5.18667 49.9568 5.928 49.9568 6.76C49.9568 7.592 49.7648 8.33867 49.3808 9C49.0074 9.65067 48.4848 10.1627 47.8128 10.536C47.1514 10.9093 46.3994 11.096 45.5568 11.096ZM45.5568 9.752C46.1008 9.752 46.5861 9.62933 47.0128 9.384C47.4501 9.128 47.7914 8.776 48.0368 8.328C48.2821 7.86933 48.4048 7.34667 48.4048 6.76C48.4048 6.17333 48.2821 5.656 48.0368 5.208C47.7914 4.74933 47.4501 4.39733 47.0128 4.152C46.5861 3.90667 46.1008 3.784 45.5568 3.784C45.0128 3.784 44.5221 3.90667 44.0848 4.152C43.6581 4.39733 43.3168 4.74933 43.0608 5.208C42.8154 5.656 42.6928 6.17333 42.6928 6.76C42.6928 7.34667 42.8154 7.86933 43.0608 8.328C43.3168 8.776 43.6581 9.128 44.0848 9.384C44.5221 9.62933 45.0128 9.752 45.5568 9.752ZM56.545 10.504C56.321 10.696 56.0437 10.8453 55.713 10.952C55.3823 11.048 55.041 11.096 54.689 11.096C53.8357 11.096 53.1743 10.8667 52.705 10.408C52.2357 9.94933 52.001 9.29333 52.001 8.44V0.664H53.537V2.52H55.969V3.784H53.537V8.376C53.537 8.83467 53.649 9.18667 53.873 9.432C54.1077 9.67733 54.4383 9.8 54.865 9.8C55.3343 9.8 55.7343 9.66667 56.065 9.4L56.545 10.504ZM61.9363 9.752C62.9496 9.752 63.7656 9.41067 64.3843 8.728L65.2163 9.72C64.8429 10.168 64.3683 10.5093 63.7923 10.744C63.2269 10.9787 62.5923 11.096 61.8883 11.096C60.9923 11.096 60.1976 10.9147 59.5043 10.552C58.8109 10.1787 58.2723 9.66133 57.8883 9C57.5149 8.33867 57.3283 7.592 57.3283 6.76C57.3283 5.93867 57.5096 5.19733 57.8723 4.536C58.2456 3.87467 58.7523 3.36267 59.3923 3C60.0429 2.62667 60.7736 2.44 61.5843 2.44C62.3523 2.44 63.0509 2.616 63.6803 2.968C64.3096 3.30933 64.8109 3.79467 65.1843 4.424C65.5576 5.05333 65.7496 5.77867 65.7603 6.6L59.0243 7.912C59.2376 8.49867 59.5949 8.952 60.0963 9.272C60.6083 9.592 61.2216 9.752 61.9363 9.752ZM61.5843 3.736C61.0509 3.736 60.5709 3.85867 60.1443 4.104C59.7283 4.34933 59.4029 4.696 59.1683 5.144C58.9336 5.58133 58.8163 6.09333 58.8163 6.68V6.84L64.2403 5.816C64.1016 5.19733 63.7923 4.696 63.3123 4.312C62.8323 3.928 62.2563 3.736 61.5843 3.736Z" fill="#191F2A"/>
</svg>